<?xml version="1.0" encoding="UTF-8" standalone="no"?>
<!-- Generator: Adobe Illustrator 19.0.0, SVG Export Plug-In . SVG Version: 6.00 Build 0)  -->

<svg
   xmlns:dc="http://purl.org/dc/elements/1.1/"
   xmlns:cc="http://creativecommons.org/ns#"
   xmlns:rdf="http://www.w3.org/1999/02/22-rdf-syntax-ns#"
   xmlns:svg="http://www.w3.org/2000/svg"
   xmlns="http://www.w3.org/2000/svg"
   xmlns:sodipodi="http://sodipodi.sourceforge.net/DTD/sodipodi-0.dtd"
   xmlns:inkscape="http://www.inkscape.org/namespaces/inkscape"
   version="1.1"
   id="Layer_1"
   x="0px"
   y="0px"
   viewBox="0 0 503.945 503.945"
   style="enable-background:new 0 0 503.945 503.945;"
   xml:space="preserve"
   inkscape:version="0.91 r13725"
   sodipodi:docname="commerce.svg"><metadata
   id="metadata85"><rdf:RDF><cc:Work
       rdf:about=""><dc:format>image/svg+xml</dc:format><dc:type
         rdf:resource="http://purl.org/dc/dcmitype/StillImage" /></cc:Work></rdf:RDF></metadata><defs
   id="defs83" /><sodipodi:namedview
   pagecolor="#ffffff"
   bordercolor="#666666"
   borderopacity="1"
   objecttolerance="10"
   gridtolerance="10"
   guidetolerance="10"
   inkscape:pageopacity="0"
   inkscape:pageshadow="2"
   inkscape:window-width="1366"
   inkscape:window-height="705"
   id="namedview81"
   showgrid="false"
   inkscape:zoom="3.7464405"
   inkscape:cx="-579.56112"
   inkscape:cy="641.23279"
   inkscape:window-x="-8"
   inkscape:window-y="-8"
   inkscape:window-maximized="1"
   inkscape:current-layer="Layer_1" />















<g
   id="g4213"
   transform="matrix(0.19843428,0,0,0.19843428,3.2358386e-4,368.72504)"
   inkscape:export-filename="C:\xampp\htdocs\Project\kalongbdg\lib\store.png"
   inkscape:export-xdpi="110"
   inkscape:export-ydpi="110"><g
     id="g3">
	<path
   id="path5"
   d="m 331.973,432.006 c 0,5.6 -0.8,11.2 -7.2,11.2 l -105.6,0 c -5.6,0 -7.2,-4.8 -7.2,-11.2 l 0,-112 c 0,-5.6 1.6,-12.8 7.2,-12.8 l 105.6,0 c 5.6,0 7.2,7.2 7.2,12.8 l 0,112 z"
   style="fill:#193a39"
   inkscape:connector-curvature="0" />
	<path
   id="path7"
   d="m 427.973,432.006 c 0,5.6 -3.2,11.2 -9.6,11.2 l -105.6,0 c -5.6,0 -12.8,-4.8 -12.8,-11.2 l 0,-328 c 0,-5.6 7.2,-13.6 12.8,-13.6 l 105.6,0 c 5.6,0 9.6,4.8 9.6,10.4 l 0,331.2 z"
   style="fill:#193a39"
   inkscape:connector-curvature="0" />
</g><g
     id="g9">
	<path
   id="path11"
   d="m 259.973,420.006 c 0,8.8 -3.2,15.2 -12,15.2 l -157.6,0 c -8.8,0 -14.4,-6.4 -14.4,-15.2 l 0,-166.4 c 0,-8.8 5.6,-18.4 14.4,-18.4 l 157.6,0 c 8.8,0 12,9.6 12,18.4 l 0,166.4 z"
   style="fill:#245151"
   inkscape:connector-curvature="0" />
	<path
   id="path13"
   d="m 143.173,413.606 c 2.4,8 -2.4,16.8 -10.4,19.2 l -7.2,2.4 c -8,2.4 -16.8,-2.4 -19.2,-10.4 l -90.4,-308 c -2.4,-8 2.4,-16.8 10.4,-19.2 l 6.4,-1.6 c 8,-2.4 16.8,2.4 19.2,10.4 l 91.2,307.2 z"
   style="fill:#245151"
   inkscape:connector-curvature="0" />
</g><path
     id="path15"
     d="m 131.973,424.806 c 0,8.8 -6.4,16 -15.2,16.8 l -6.4,0 c -8.8,0 -16,-6.4 -16.8,-15.2 l -13.6,-320 c 0,-8.8 6.4,-16 15.2,-16.8 l 6.4,0 c 8.8,0 16,6.4 16.8,15.2 l 13.6,320 z"
     style="fill:#193a39"
     inkscape:connector-curvature="0" /><path
     id="path17"
     d="m 103.173,376.806 c 0.8,8.8 -5.6,16 -14.4,16.8 l -6.4,0.8 c -8.8,0.8 -16,-5.6 -16.8,-14.4 l -30.4,-318.4 c -0.8,-8.8 5.6,-16 14.4,-16.8 l 6.4,-0.8 c 8.8,-0.8 16,5.6 16.8,14.4 l 30.4,318.4 z"
     style="fill:#35605f"
     inkscape:connector-curvature="0" /><path
     id="path19"
     d="m 455.173,351.206 48,-152.8 c 1.6,-6.4 0.8,-13.6 -3.2,-18.4 -4,-4.8 -10.4,-8.8 -16.8,-8.8 l -462.4,0 c -6.4,0 -12.8,3.2 -16.8,8.8 -4,5.6 -4.8,12 -3.2,18.4 l 48,152.8 c 0,3.2 0.8,5.6 2.4,8.8 l 20.8,67.2 c 2.4,8.8 10.4,16 20,16 l 320,0 c 8.8,0 16.8,-7.2 20,-16 l 20.8,-67.2 2.4,-8.8 z m -381.6,-60 356.8,0 -12,40 -333.6,0 -11.2,-40 z m 381.6,-80 -11.2,40 -383.2,0 -11.2,-40 405.6,0 z m -348,192 -8.8,-32 308,0 -8.8,32 -290.4,0 z"
     style="fill:#ff0d52"
     inkscape:connector-curvature="0" /><path
     id="path21"
     d="m 499.973,187.206 c -4,-5.6 -10.4,-8 -16.8,-8 l -462.4,0 c -6.4,0 -12.8,2.4 -16.8,8 -4,5.6 -4.8,12 -3.2,18.4 l 71.2,227.2 c 0.8,1.6 0.8,3.2 1.6,4 -2.4,2.4 -4,5.6 -4,9.6 0,7.2 5.6,13.6 12.8,13.6 l 337.6,0 c 7.2,0 12.8,-6.4 12.8,-13.6 0,-3.2 -1.6,-7.2 -4,-9.6 0.8,-1.6 1.6,-2.4 1.6,-4 l 20.8,-66.4 2.4,-8.8 48,-152.8 c 3.2,-5.6 2.4,-12.8 -1.6,-17.6 z m -401.6,192 308,0 -8.8,32 -290.4,0 -8.8,-32 z m 320.8,-48 -334.4,0 -12,-32 356.8,0 -10.4,32 z m 24,-72 -382.4,0 -11.2,-40 405.6,0 -12,40 z"
     style="fill:#e0004b"
     inkscape:connector-curvature="0" /><path
     id="path23"
     d="m 153.573,194.406 c -7.2,7.2 -19.2,7.2 -26.4,0 l -16.8,-16.8 c -7.2,-7.2 -7.2,-19.2 0,-26.4 l 84.8,-87.2 c 7.2,-7.2 19.2,-7.2 26.4,0 l 16.8,16.8 c 7.2,7.2 7.2,19.2 0,26.4 l -84.8,87.2 z"
     style="fill:#65a5a8"
     inkscape:connector-curvature="0" /><path
     id="path25"
     d="m 131.973,172.806 85.6,-85.6 c 6.4,-6.4 7.2,-16.8 1.6,-24 -7.2,-5.6 -17.6,-4.8 -24,1.6 l -85.6,85.6 c -6.4,6.4 -7.2,16.8 -1.6,24 7.2,5.6 17.6,4.8 24,-1.6 z"
     style="fill:#72b1b7"
     inkscape:connector-curvature="0" /><path
     id="path27"
     d="m 156.773,147.206 c 9.6,9.6 -12,47.2 -21.6,57.6 -9.6,9.6 -25.6,9.6 -36,0 -9.6,-9.6 -9.6,-25.6 0,-36 10.4,-10.4 48,-32 57.6,-21.6 z"
     style="fill:#579b9b"
     inkscape:connector-curvature="0" /><g
     id="g29">
	<path
   id="path31"
   d="m 155.173,186.406 c -1.6,23.2 -24,32.8 -37.6,29.6 -13.6,-3.2 -25.6,-16 -25.6,-29.6 0,-13.6 11.2,-25.6 25.6,-25.6 13.6,0 38.4,11.2 37.6,25.6 z"
   style="opacity:0.2;fill:#83c9cc;enable-background:new"
   inkscape:connector-curvature="0" />
	<circle
   id="circle33"
   r="25.6"
   cy="186.40601"
   cx="117.573"
   style="fill:#83c9cc" />
</g><g
     id="g35">
	<path
   id="path37"
   d="m 135.173,168.006 c 9.6,9.6 9.6,25.6 0,36 -9.6,9.6 -25.6,9.6 -36,0"
   style="fill:#72b1b7"
   inkscape:connector-curvature="0" />
	<path
   id="path39"
   d="m 350.373,194.406 c 7.2,7.2 19.2,7.2 26.4,0 l 16.8,-16.8 c 7.2,-7.2 7.2,-19.2 0,-26.4 l -84.8,-87.2 c -7.2,-7.2 -19.2,-7.2 -26.4,0 l -16.8,16.8 c -7.2,7.2 -7.2,19.2 0,26.4 l 84.8,87.2 z"
   style="fill:#72b1b7"
   inkscape:connector-curvature="0" />
</g><path
     id="path41"
     d="m 371.973,172.806 -85.6,-86.4 c -6.4,-6.4 -7.2,-16.8 -1.6,-24 7.2,-5.6 17.6,-4.8 24,1.6 l 85.6,85.6 c 6.4,6.4 7.2,16.8 1.6,24 -7.2,6.4 -17.6,5.6 -24,-0.8 z"
     style="fill:#65a5a8"
     inkscape:connector-curvature="0" /><path
     id="path43"
     d="m 347.173,147.206 c -9.6,9.6 12,47.2 21.6,57.6 9.6,9.6 25.6,9.6 36,0 9.6,-9.6 9.6,-25.6 0,-36 -10.4,-10.4 -48,-32 -57.6,-21.6 z"
     style="fill:#579b9b"
     inkscape:connector-curvature="0" /><path
     id="path45"
     d="m 348.773,186.406 c 1.6,23.2 24,32.8 37.6,29.6 13.6,-3.2 25.6,-16 25.6,-29.6 0,-13.6 -11.2,-25.6 -25.6,-25.6 -13.6,0 -38.4,11.2 -37.6,25.6 z"
     style="opacity:0.2;fill:#83c9cc;enable-background:new"
     inkscape:connector-curvature="0" /><circle
     id="circle47"
     r="25.6"
     cy="186.40601"
     cx="386.37299"
     style="fill:#72b1b7" /><path
     id="path49"
     d="m 368.773,168.006 c -9.6,9.6 -9.6,25.6 0,36 9.6,9.6 25.6,9.6 36,0"
     style="fill:#83c9cc"
     inkscape:connector-curvature="0" /></g>
<g
   id="g51">
</g>
<g
   id="g53">
</g>
<g
   id="g55">
</g>
<g
   id="g57">
</g>
<g
   id="g59">
</g>
<g
   id="g61">
</g>
<g
   id="g63">
</g>
<g
   id="g65">
</g>
<g
   id="g67">
</g>
<g
   id="g69">
</g>
<g
   id="g71">
</g>
<g
   id="g73">
</g>
<g
   id="g75">
</g>
<g
   id="g77">
</g>
<g
   id="g79">
</g>
<g
   id="g4551"><g
     inkscape:export-ydpi="110"
     inkscape:export-xdpi="110"
     inkscape:export-filename="C:\xampp\htdocs\Project\kalongbdg\lib\buku.png"
     transform="matrix(0.23027729,0,0,0.23027729,-302.34931,-152.20059)"
     id="g4320"><g
       id="g4242">
	<path
   inkscape:connector-curvature="0"
   style="fill:#324a5e"
   d="m 440.8,131.6 0,242.4 C 379.6,361.6 314,370 254,398.4 302.4,363.2 356,347.2 405.6,352.8 l 0,-226 c 12,0.8 23.6,2.4 35.2,4.8 z"
   id="path4244" />
	<path
   inkscape:connector-curvature="0"
   style="fill:#324a5e"
   d="M 254,398.4 C 194.4,370 128.8,361.6 67.2,374 l 0,-242.4 c 11.6,-2.4 23.2,-4 35.2,-4.8 l 0,226 c 49.6,-5.2 103.2,10.4 151.6,45.6 z"
   id="path4246" />
</g><path
       inkscape:connector-curvature="0"
       style="fill:#ffffff"
       d="M 405.6,110.4 C 356,104.8 302.4,120.8 254,156 l 0,242.4 c 48.4,-35.2 102,-51.2 151.6,-45.6 l 0,-242.4 z"
       id="path4248" /><g
       id="g4250">
	<path
   inkscape:connector-curvature="0"
   style="fill:#e6e9ee"
   d="m 266,174.4 0,6 c 40.4,-28.4 85.6,-42 127.2,-38.4 l 0,-5.2 c -41.6,-3.2 -86.4,10 -127.2,37.6 z"
   id="path4252" />
	<path
   inkscape:connector-curvature="0"
   style="fill:#e6e9ee"
   d="m 266,203.6 0,6.4 c 40.4,-28.4 85.6,-42 127.2,-38.4 l 0,-5.2 C 351.6,162.8 306.8,176 266,203.6 Z"
   id="path4254" />
	<path
   inkscape:connector-curvature="0"
   style="fill:#e6e9ee"
   d="m 266,232.8 0,6 c 40.4,-28.4 85.6,-42 127.2,-38.4 l 0,-5.2 c -41.6,-3.2 -86.4,10 -127.2,37.6 z"
   id="path4256" />
	<path
   inkscape:connector-curvature="0"
   style="fill:#e6e9ee"
   d="m 266,262.4 0,6 c 40.4,-28.4 85.6,-42 127.2,-38.4 l 0,-5.2 c -41.6,-3.6 -86.4,9.6 -127.2,37.6 z"
   id="path4258" />
	<path
   inkscape:connector-curvature="0"
   style="fill:#e6e9ee"
   d="m 266,291.6 0,6 c 40.4,-28.4 85.6,-42 127.2,-38.4 l 0,-5.2 c -41.6,-3.6 -86.4,9.6 -127.2,37.6 z"
   id="path4260" />
	<path
   inkscape:connector-curvature="0"
   style="fill:#e6e9ee"
   d="m 266,320.8 0,6 c 40.4,-28.4 85.6,-42 127.2,-38.4 l 0,-5.2 c -41.6,-3.2 -86.4,10 -127.2,37.6 z"
   id="path4262" />
	<path
   inkscape:connector-curvature="0"
   style="fill:#e6e9ee"
   d="m 266,350 0,6 c 40.4,-28.4 85.6,-42 127.2,-38.4 l 0,-5.2 c -41.6,-3.2 -86.4,10 -127.2,37.6 z"
   id="path4264" />
	<path
   inkscape:connector-curvature="0"
   style="fill:#e6e9ee"
   d="m 102.4,110.4 c 50,-5.6 103.2,10.4 151.6,45.6 l 0,242.4 c -48.4,-35.2 -102,-51.2 -151.6,-45.6 0,0 0,-242.4 0,-242.4 z"
   id="path4266" />
</g><g
       id="g4268">
	<path
   inkscape:connector-curvature="0"
   style="fill:#ced5e0"
   d="m 242,174.4 0,6 C 201.2,152 156.4,138.4 114.4,142 l 0,-5.2 c 42,-3.2 86.8,10 127.6,37.6 z"
   id="path4270" />
	<path
   inkscape:connector-curvature="0"
   style="fill:#ced5e0"
   d="m 242,203.6 0,6.4 C 201.6,181.6 156.4,168 114.8,171.6 l 0,-5.2 c 41.6,-3.6 86.4,9.6 127.2,37.2 z"
   id="path4272" />
	<path
   inkscape:connector-curvature="0"
   style="fill:#ced5e0"
   d="m 242,232.8 0,6 c -40.4,-28.4 -85.6,-42 -127.2,-38.4 l 0,-5.2 c 41.6,-3.2 86.4,10 127.2,37.6 z"
   id="path4274" />
	<path
   inkscape:connector-curvature="0"
   style="fill:#ced5e0"
   d="m 242,262.4 0,6 C 201.2,240 156.4,226.4 114.4,230 l 0,-5.2 c 42,-3.6 86.8,9.6 127.6,37.6 z"
   id="path4276" />
	<path
   inkscape:connector-curvature="0"
   style="fill:#ced5e0"
   d="m 242,291.6 0,6 c -40.4,-28.4 -85.6,-42 -127.2,-38.4 l 0,-5.2 c 41.6,-3.6 86.4,9.6 127.2,37.6 z"
   id="path4278" />
	<path
   inkscape:connector-curvature="0"
   style="fill:#ced5e0"
   d="m 242,320.8 0,6 c -40.4,-28.4 -85.6,-42 -127.2,-38.4 l 0,-5.2 c 41.6,-3.2 86.4,10 127.2,37.6 z"
   id="path4280" />
	<path
   inkscape:connector-curvature="0"
   style="fill:#ced5e0"
   d="m 242,350 0,6 C 201.2,327.6 156.4,314 114.4,317.6 l 0,-5.2 c 42,-3.2 86.8,10 127.6,37.6 z"
   id="path4282" />
</g><g
       id="g4284">
</g><g
       id="g4286">
</g><g
       id="g4288">
</g><g
       id="g4290">
</g><g
       id="g4292">
</g><g
       id="g4294">
</g><g
       id="g4296">
</g><g
       id="g4298">
</g><g
       id="g4300">
</g><g
       id="g4302">
</g><g
       id="g4304">
</g><g
       id="g4306">
</g><g
       id="g4308">
</g><g
       id="g4310">
</g><g
       id="g4312">
</g></g><g
     inkscape:export-ydpi="110"
     inkscape:export-xdpi="110"
     inkscape:export-filename="C:\xampp\htdocs\Project\kalongbdg\lib\buku.png"
     transform="matrix(-0.10572784,0,0,0.10572784,-198.27287,-117.18309)"
     id="g4408"><rect
       x="209.91299"
       y="240.442"
       transform="matrix(-0.7071,-0.7071,0.7071,-0.7071,165.3209,655.6308)"
       style="fill:#ece7ea"
       width="17.066999"
       height="106.268"
       id="rect4360" /><circle
       style="fill:#f14742"
       cx="354.19101"
       cy="157.811"
       r="157.81"
       id="circle4362" /><circle
       style="fill:#ece7ea"
       cx="354.19101"
       cy="157.811"
       r="124.018"
       id="circle4364" /><path
       inkscape:connector-curvature="0"
       style="fill:#ffffff"
       d="m 290.877,103.028 c -2.183,0 -4.367,-0.833 -6.034,-2.499 -3.333,-3.333 -3.333,-8.736 0,-12.067 18.523,-18.524 43.153,-28.727 69.35,-28.727 26.197,0 50.826,10.201 69.349,28.726 3.333,3.333 3.333,8.736 0,12.067 -3.333,3.331 -8.736,3.333 -12.067,-0.001 -15.302,-15.301 -35.644,-23.726 -57.283,-23.726 -21.639,0 -41.982,8.426 -57.282,23.727 -1.666,1.666 -3.85,2.5 -6.033,2.5 z"
       id="path4366" /><path
       inkscape:connector-curvature="0"
       style="fill:#1b4145"
       d="M 188.403,373.254 56.765,504.892 C 43.056,518.601 28.831,510.588 15.122,496.879 1.413,483.17 -6.6,468.945 7.109,455.236 l 131.638,-131.638 40.918,8.737 8.738,40.919 z"
       id="path4368" /><path
       inkscape:connector-curvature="0"
       style="fill:#c2b8b9"
       d="m 204.436,357.219 -16.035,16.035 -49.656,-49.656 16.035,-16.035 c 13.709,-13.709 35.947,-13.709 49.656,0 13.71,13.71 13.71,35.947 0,49.656 z"
       id="path4370" /><g
       id="g4372">
</g><g
       id="g4374">
</g><g
       id="g4376">
</g><g
       id="g4378">
</g><g
       id="g4380">
</g><g
       id="g4382">
</g><g
       id="g4384">
</g><g
       id="g4386">
</g><g
       id="g4388">
</g><g
       id="g4390">
</g><g
       id="g4392">
</g><g
       id="g4394">
</g><g
       id="g4396">
</g><g
       id="g4398">
</g><g
       id="g4400">
</g></g></g><g
   id="g4669"
   transform="matrix(0.2016129,0,0,0.2016129,-682.85917,-157.42265)"
   inkscape:export-filename="C:\xampp\htdocs\Project\kalongbdg\lib\podium.png"
   inkscape:export-xdpi="110"
   inkscape:export-ydpi="110"><rect
     id="rect4613"
     height="160"
     width="168"
     style="fill:#d3d3d3"
     y="248"
     x="0" /><polyline
     id="polyline4615"
     points="0,248 168,248 168,408 "
     style="fill:#bcbcbc" /><polygon
     id="polygon4617"
     points="168,408 328,408 328,250.4 328,245.6 328,88 168,88 168,245.6 168,250.4 "
     style="fill:#d40000" /><polyline
     id="polyline4619"
     points="328,408 328,250.4 328,245.6 328,88 168,88 168,245.6 168,248 "
     style="fill:#aa0000" /><rect
     id="rect4621"
     height="160"
     width="168"
     style="fill:#9a8b9e"
     y="248"
     x="328" /><polyline
     id="polyline4623"
     points="328,248 496,248 496,408 "
     style="fill:#86748c" /><path
     id="path4625"
     d="m 235.2,150.4 0,0 -21.6,9.6 -4,-20 29.6,-13.6 21.6,0 0,112 -25.6,0 0,-88 0,0 z"
     style="fill:#ffffff"
     inkscape:connector-curvature="0" /><g
     id="g4627">
	<path
   id="path4629"
   d="m 50.4,372.8 0,-12.8 11.2,-10.4 C 80.8,332 90.4,322.4 90.4,312 c 0,-7.2 -4,-12.8 -14.4,-12.8 -8,0 -14.4,4 -19.2,7.2 l -5.6,-15.2 c 6.4,-4.8 16.8,-8.8 28.8,-8.8 20,0 31.2,12 31.2,28 0,15.2 -10.4,26.4 -23.2,38.4 l -8,7.2 0,0 33.6,0 0,16.8 -63.2,0 0,0 z"
   style="fill:#ff0066"
   inkscape:connector-curvature="0" />
	<path
   id="path4631"
   d="m 387.2,352 c 4,1.6 12,5.6 20.8,5.6 10.4,0 16,-4.8 16,-12 0,-8.8 -8.8,-12.8 -17.6,-12.8 l -8.8,0 0,-15.2 8,0 c 7.2,0 16,-2.4 16,-10.4 0,-5.6 -4,-9.6 -12.8,-9.6 -7.2,0 -15.2,3.2 -18.4,5.6 l -4,-15.2 c 5.6,-3.2 16,-6.4 27.2,-6.4 19.2,0 29.6,9.6 29.6,22.4 0,9.6 -5.6,16.8 -16,20.8 l 0,0 c 10.4,1.6 19.2,9.6 19.2,21.6 0,16 -13.6,27.2 -36,27.2 -11.2,0 -20.8,-3.2 -26.4,-6.4 l 3.2,-15.2 z"
   style="fill:#ff0066"
   inkscape:connector-curvature="0" />
</g><g
     id="g4633">
</g><g
     id="g4635">
</g><g
     id="g4637">
</g><g
     id="g4639">
</g><g
     id="g4641">
</g><g
     id="g4643">
</g><g
     id="g4645">
</g><g
     id="g4647">
</g><g
     id="g4649">
</g><g
     id="g4651">
</g><g
     id="g4653">
</g><g
     id="g4655">
</g><g
     id="g4657">
</g><g
     id="g4659">
</g><g
     id="g4661">
</g></g></svg>